HIERARCHY
ROOT ui
{
	 OFFSET 0 0 0
	 CHANNELS 3 XPosition YPosition Z Position
	 EndSite
	 {
	 OFFSET 0 -1 0
	 }
}
ROOT li
{
	 OFFSET 0 0 0
	 CHANNELS 3 XPosition YPosition Z Position
	 EndSite
	 {
	 OFFSET 0 -1 0
	 }
}
ROOT ul
{
	 OFFSET 0 0 0
	 CHANNELS 3 XPosition YPosition Z Position
	 EndSite
	 {
	 OFFSET 0 -1 0
	 }
}
ROOT ll
{
	 OFFSET 0 0 0
	 CHANNELS 3 XPosition YPosition Z Position
	 EndSite
	 {
	 OFFSET 0 -1 0
	 }
}
ROOT tt
{
	 OFFSET 0 0 0
	 CHANNELS 3 XPosition YPosition Z Position
	 EndSite
	 {
	 OFFSET 0 -1 0
	 }
}
ROOT tb
{
	 OFFSET 0 0 0
	 CHANNELS 3 XPosition YPosition Z Position
	 EndSite
	 {
	 OFFSET 0 -1 0
	 }
}
ROOT td
{
	 OFFSET 0 0 0
	 CHANNELS 3 XPosition YPosition Z Position
	 EndSite
	 {
	 OFFSET 0 -1 0
	 }
}
ROOT v
{
	 OFFSET 0 0 0
	 CHANNELS 3 XPosition YPosition Z Position
	 EndSite
	 {
	 OFFSET 0 -1 0
	 }
}
ROOT bn
{
	 OFFSET 0 0 0
	 CHANNELS 3 XPosition YPosition Z Position
	 EndSite
	 {
	 OFFSET 0 -1 0
	 }
}
MOTION
Frames: 24
Frame Time: 0.002
1.02681003510952E-4	-2.827199921011925E-5	0		0.3675162353515625	-2.301411376953125	0		-1.0061905517578125	-0.005942008972167969	0		-0.8317367553710937	-2.25065478515625	0		1.6971248779296875	-0.3312769165039062	0		3.225628173828125	0.04979906463623047	0		4.52400146484375	0.057172897338867185	0		5.59403125	-0.004134408950805664	0		-0.06763153076171875	5.9193212890625	0		
-0.0035813748836517334	-0.0027452940940856933	0		0.42034521484375	-2.309079833984375	0		-1.009873046875	-0.00892037296295166	0		-0.8806224365234375	-2.241729248046875	0		1.6514593505859374	-0.33676675415039065	0		3.25096337890625	0.0493768424987793	0		4.525095703125	0.04453915023803711	0		5.5789111328125	0.02482060432434082	0		-0.05361300277709961	5.92922900390625	0		
-0.008140929222106933	0.0025484459400177003	0		0.39430218505859377	-2.30627490234375	0		-1.009524169921875	-0.008965989112854005	0		-0.8058284912109375	-2.248108154296875	0		1.685975341796875	-0.3317852783203125	0		3.251297607421875	0.05038087844848633	0		4.520580078125	0.05394801330566406	0		5.59475048828125	-8.926600217819214E-4	0		-0.06990911865234375	5.919697265625	0		
-0.005975927829742432	-0.005291847229003907	0		0.39310934448242185	-2.307950439453125	0		-1.0151181640625	-0.0038933799266815186	0		-0.8710787353515625	-2.25189306640625	0		1.652278076171875	-0.33557928466796877	0		3.246726318359375	0.05841691589355469	0		4.52087890625	0.05518658828735352	0		5.59024560546875	0.010682977676391602	0		-0.07096166229248047	5.9198779296875	0		
-0.02864834213256836	-0.0016906230449676514	0		0.3798521423339844	-2.308426025390625	0		-1.0780006103515625	-0.011783625602722168	0		-0.856388427734375	-2.25514111328125	0		1.6587611083984375	-0.32714947509765624	0		3.214987548828125	0.05987118911743164	0		4.5300986328125	0.054172832489013674	0		5.5715146484375	0.01240041446685791	0		-0.18916474914550782	5.90916162109375	0		
0.004691679954528808	0.004893488883972168	0		0.40269061279296875	-2.29856787109375	0		-0.9955238037109375	0.0017240450382232666	0		-0.8635553588867187	-2.244985595703125	0		1.66311474609375	-0.3227236328125	0		3.26026025390625	0.06386512756347656	0		4.52243408203125	0.06236383819580078	0		5.5806953125	0.011489899635314941	0		-0.17393997192382812	5.917017578125	0		
-0.0022625091075897216	-0.0018126569986343384	0		0.399165283203125	-2.303259033203125	0		-1.0144578857421875	-0.003941471099853515	0		-0.79013720703125	-2.253252685546875	0		1.6951751708984375	-0.33183438110351565	0		3.247349853515625	0.06082132339477539	0		4.52560986328125	0.06425265502929688	0		5.59086083984375	0.012436296463012695	0		-0.19092170715332032	5.90943994140625	0		
-0.002144943952560425	-0.001656569004058838	0		0.3975933532714844	-2.305007568359375	0		-1.0084284057617188	-0.009041481018066407	0		-0.8764935302734375	-2.241693359375	0		1.653296142578125	-0.3336879577636719	0		3.2113759765625	0.057095829010009765	0		4.52161279296875	0.05915884780883789	0		5.57617138671875	0.024692239761352538	0		-0.07448114776611328	5.92051708984375	0		
-0.014112369537353515	-0.0033047749996185302	0		0.397957763671875	-2.3048125	0		-1.0083619384765625	-0.00902908992767334	0		-0.8042698364257812	-2.249913818359375	0		1.6923814697265624	-0.3350076904296875	0		3.236395263671875	0.05522171020507813	0		4.52167041015625	0.05988887023925781	0		5.58178076171875	-5.412250161170959E-4	0		-0.07421905517578126	5.9186337890625	0		
-0.002064901113510132	-0.0013845510482788086	0		0.382177734375	-2.307362548828125	0		-1.0823355712890625	-0.007733719825744629	0		-0.8541026611328125	-2.25500927734375	0		1.6565245361328125	-0.32907034301757815	0		3.252401123046875	0.05543283462524414	0		4.530642578125	0.05836336517333984	0		5.58105419921875	0.015220697402954102	0		-0.05967189788818359	5.929494140625	0		
0.0019522229433059693	0.0016611139774322509	0		0.402491943359375	-2.299556884765625	0		-1.0043287353515624	-0.006058926105499267	0		-0.7888858032226562	-2.253090087890625	0		1.6995662841796875	-0.3265408020019531	0		3.247483154296875	0.06293388748168946	0		4.53060302734375	0.05889797592163086	0		5.57619091796875	0.02593698310852051	0		-0.1936132049560547	5.90989111328125	0		
-0.0021771678924560546	-0.0011692179441452027	0		0.40053659057617186	-2.302390869140625	0		-1.08244677734375	-0.00770028018951416	0		-0.8756099243164063	-2.241563232421875	0		1.6564674072265626	-0.32857571411132813	0		3.23628173828125	0.056469703674316404	0		4.5297763671875	0.0743568115234375	0		5.5957998046875	0.008120808601379394	0		-0.06078279113769531	5.92969970703125	0		
-0.0022962729930877685	-0.001082901954650879	0		0.42548443603515623	-2.306705810546875	0		-1.0185576782226562	-0.007769614219665527	0		-0.8037236938476563	-2.249755126953125	0		1.687380615234375	-0.327917724609375	0		3.251361328125	0.06849394989013671	0		4.5214326171875	0.06185451889038086	0		5.58088671875	0.02079841423034668	0		-0.06224225234985352	5.93079931640625	0		
-0.009569524765014648	-0.007890579223632812	0		0.3694776916503906	-2.303662353515625	0		-1.082720458984375	-0.007656621932983399	0		-0.8776795043945312	-2.243463134765625	0		1.653160400390625	-0.33218887329101565	0		3.215123046875	0.06432904815673827	0		4.5212744140625	0.062135894775390624	0		5.58073046875	0.021128740310668945	0		-0.07783938598632813	5.92112548828125	0		
-0.002637763023376465	-9.511560201644897E-4	0		0.40926083374023436	-2.31026806640625	0		-1.0089170532226563	-0.008888151168823242	0		-0.8539808349609375	-2.25483837890625	0		1.636072509765625	-0.3267867126464844	0		3.214934814453125	0.06449574279785156	0		4.5251875	0.0682774658203125	0		5.5763408203125	0.00944389533996582	0		-0.19542671203613282	5.91016796875	0		
0.009183863639831542	8.935070037841797E-4	0		0.3862224426269531	-2.302822265625	0		-1.0709322509765624	0.0031865720748901366	0		-0.8619718017578125	-2.2446748046875	0		1.6629837646484376	-0.3201611328125	0		3.268765869140625	0.06669899749755859	0		4.52682275390625	0.05939162826538086	0		5.590263671875	0.017375274658203124	0		-0.047245189666748046	5.939701171875	0		
-0.003940785884857178	0.007152040004730225	0		0.4269985046386719	-2.304472412109375	0		-1.0093553466796874	-0.008834394454956054	0		-0.876120849609375	-2.241408935546875	0		1.6525577392578126	-0.33193145751953124	0		3.250573486328125	0.06908080291748046	0		4.5288642578125	0.07544763946533203	0		5.5841884765625	0.026580104827880858	0		-0.19606300354003905	5.9102490234375	0		
0.001599329948425293	-0.005915342807769775	0		0.37080911254882815	-2.301491455078125	0		-1.0095943603515625	-0.008805505752563477	0		-0.84144189453125	-2.24697119140625	0		1.69129736328125	-0.33355337524414064	0		3.214254638671875	0.06473393249511719	0		4.52450732421875	0.06856390380859376	0		5.571544921875	0.002837730884552002	0		-0.07815274047851563	5.9192822265625	0		
-0.0035590550899505615	-8.044670224189759E-4	0		0.4312960815429687	-2.31749560546875	0		-1.0098380737304689	-0.008775583267211914	0		-0.8786361083984375	-2.24331591796875	0		1.6520751953125	-0.3318714294433594	0		3.21889208984375	0.057667915344238284	0		4.52016259765625	0.06264623641967773	0		5.56545458984375	0.011948708534240723	0		-0.0783791732788086	5.9193095703125	0		
-0.03471130752563477	0.004743093013763427	0		0.3812146301269531	-2.306630126953125	0		-1.0100794677734375	-0.00874495792388916	0		-0.866996826171875	-2.24948876953125	0		1.654898681640625	-0.3279112548828125	0		3.250646484375	0.05712646484375	0		4.519921875	0.06263725662231445	0		5.58517626953125	0.009593911170959472	0		-0.06339403915405273	5.930078125	0		
2.0346999168395995E-5	0.002172334909439087	0		0.4079083251953125	-2.3100693359375	0		-1.0103090209960937	-0.008713732719421387	0		-0.8651973266601563	-2.2464931640625	0		1.6577333984375	-0.32395697021484376	0		3.21354150390625	0.06474263000488281	0		4.527912109375	0.07547806549072265	0		5.57908349609375	0.017662389755249024	0		-0.06356666183471679	5.93010009765625	0		
-0.03023036766052246	-2.9771798849105834E-4	0		0.3988166198730469	-2.301901123046875	0		-1.0105133666992188	-0.008682076454162597	0		-0.8034342041015625	-2.247513916015625	0		1.6903685302734375	-0.3335115966796875	0		3.2383173828125	0.06330603408813476	0		4.5345888671875	0.06833356475830078	0		5.59374169921875	0.009371319770812988	0		-0.06370820999145507	5.9301220703125	0		
0.06866081237792969	0.002044054985046387	0		0.42355865478515625	-2.3063076171875	0		-1.0106758422851563	-0.008650261878967285	0		-0.879558349609375	-2.243195556640625	0		1.69020263671875	-0.3335080871582031	0		3.249255859375	0.06910588073730468	0		4.5234287109375	0.06849385070800781	0		5.573904296875	0.02867042541503906	0		-0.07899290466308594	5.91939990234375	0		
-0.0045015478134155275	-6.951760053634644E-4	0		0.3674732971191406	-2.303339599609375	0		-1.0107809448242187	-0.008618507385253906	0		-0.7979514770507813	-2.2595546875	0		1.6851968994140625	-0.32741851806640626	0		3.229069580078125	0.06443649291992187	0		4.53020458984375	0.06135417175292969	0		5.584509765625	0.011454120635986328	0		-0.08000645446777344	5.92143896484375	0		
